<?xml version="1.0" standalone="no"?>
<!DOCTYPE svg PUBLIC "-//W3C//DTD SVG 20010904//EN"
 "http://www.w3.org/TR/2001/REC-SVG-20010904/DTD/svg10.dtd">
<svg version="1.0" xmlns="http://www.w3.org/2000/svg"
 width="323.000000pt" height="323.000000pt" viewBox="0 0 323.000000 323.000000"
 preserveAspectRatio="xMidYMid meet">
<metadata>
Created by potrace 1.11, written by Peter Selinger 2001-2013
</metadata>
<g transform="translate(0.000000,323.000000) scale(0.100000,-0.100000)"
fill="#000000" stroke="none">
<path d="M565 1738 l0 -1063 106 -3 107 -3 0 861 c0 474 2 863 5 866 2 3 34
-48 71 -113 36 -65 78 -138 92 -163 80 -138 420 -730 436 -760 11 -19 29 -51
41 -71 12 -20 46 -79 76 -130 l54 -95 63 1 63 0 152 265 c84 146 162 281 173
302 12 20 116 201 231 402 l210 365 3 -864 2 -865 108 0 108 0 0 1065 0 1066
-110 -3 -110 -3 -104 -180 c-57 -99 -117 -202 -132 -230 -15 -27 -59 -104 -97
-170 -39 -66 -81 -140 -95 -165 -14 -25 -76 -133 -138 -240 -61 -107 -125
-217 -140 -245 -30 -54 -121 -208 -125 -213 -2 -2 -115 192 -243 420 -11 18
-83 146 -162 283 -78 138 -151 265 -162 283 -10 18 -37 66 -60 105 -22 40 -46
81 -52 92 -6 11 -42 75 -80 143 l-70 122 -110 0 -111 0 0 -1062z"/>
</g>
</svg>
